# ProBuilder 4.4.0
# https://unity3d.com/unity/features/worldbuilding/probuilder
# 26-02-2021 16:08:54

mtllib ./Arch.mtl
o Arch

g Arch
v -6.000001 -5.960466E-08 -0.5000001
v -5.967133 0.6271707 -0.5000001
v -6.000001 -5.960466E-08 0.4999999
v -5.967133 0.6271707 0.4999999
v -5.37042 0.5644537 -0.5000001
v -5.400001 -5.960466E-08 -0.5000001
v -5.37042 0.5644537 0.4999999
v -5.400001 -5.960466E-08 0.4999999
v -5.868887 1.24747 -0.5000001
v -5.868887 1.24747 0.4999999
v -5.281998 1.122723 -0.5000001
v -5.281998 1.122723 0.4999999
v -5.70634 1.854102 -0.5000001
v -5.70634 1.854102 0.4999999
v -5.135706 1.668692 -0.5000001
v -5.135706 1.668692 0.4999999
v -5.481274 2.44042 -0.5000001
v -5.481274 2.44042 0.4999999
v -4.933146 2.196378 -0.5000001
v -4.933146 2.196378 0.4999999
v -5.196153 3 -0.5000001
v -5.196153 3 0.4999999
v -4.676538 2.7 -0.5000001
v -4.676538 2.7 0.4999999
v -1.247471 5.868886 -0.5000001
v -0.6271715 5.967132 -0.5000001
v -1.247471 5.868886 0.4999999
v -0.6271715 5.967132 0.4999999
v -0.5644546 5.370419 -0.5000001
v -1.122724 5.281997 -0.5000001
v -0.5644546 5.370419 0.4999999
v -1.122724 5.281997 0.4999999
v -4.768372E-07 6 -0.5000001
v -4.768372E-07 6 0.4999999
v -9.536743E-07 5.4 -0.5000001
v -9.536743E-07 5.4 0.4999999
v 0.6271701 5.967132 -0.5000001
v 0.6271701 5.967132 0.4999999
v 0.5644531 5.370419 -0.5000001
v 0.5644531 5.370419 0.4999999
v 1.247469 5.868886 -0.5000001
v 1.247469 5.868886 0.4999999
v 1.122722 5.281997 -0.5000001
v 1.122722 5.281997 0.4999999
v 1.854101 5.706339 -0.5000001
v 1.854101 5.706339 0.4999999
v 1.668691 5.135705 -0.5000001
v 1.668691 5.135705 0.4999999
v 2.440418 5.481273 -0.5000001
v 2.440418 5.481273 0.4999999
v 2.196377 4.933146 -0.5000001
v 2.196377 4.933146 0.4999999
v 2.999999 5.196152 -0.5000001
v 2.999999 5.196152 0.4999999
v 2.7 4.676537 -0.5000001
v 2.7 4.676537 0.4999999
v 3.52671 4.854102 -0.5000001
v 3.52671 4.854102 0.4999999
v 3.174039 4.368692 -0.5000001
v 3.174039 4.368692 0.4999999
v 4.014783 4.458869 -0.5000001
v 4.014783 4.458869 0.4999999
v 3.613305 4.012982 -0.5000001
v 3.613305 4.012982 0.4999999
v 4.458868 4.014784 -0.5000001
v 4.458868 4.014784 0.4999999
v 4.01298 3.613305 -0.5000001
v 4.01298 3.613305 0.4999999
v 4.854101 3.526711 -0.5000001
v 4.854101 3.526711 0.4999999
v 4.368691 3.17404 -0.5000001
v 4.368691 3.17404 0.4999999
v 5.196151 3 -0.5000001
v 5.196151 3 0.4999999
v 4.676536 2.7 -0.5000001
v 4.676536 2.7 0.4999999
v 5.481272 2.440419 -0.5000001
v 5.481272 2.440419 0.4999999
v 4.933145 2.196378 -0.5000001
v 4.933145 2.196378 0.4999999
v 5.706338 1.854102 -0.5000001
v 5.706338 1.854102 0.4999999
v 5.135704 1.668692 -0.5000001
v 5.135704 1.668692 0.4999999
v 5.868885 1.24747 -0.5000001
v 5.868885 1.24747 0.4999999
v 5.281997 1.122723 -0.5000001
v 5.281997 1.122723 0.4999999
v 5.967131 0.6271709 -0.5000001
v 5.967131 0.6271709 0.4999999
v 5.370418 0.5644538 -0.5000001
v 5.370418 0.5644538 0.4999999
v 5.999999 -5.841413E-07 -0.5000001
v 5.999999 -5.841413E-07 0.4999999
v 5.399999 -5.316876E-07 -0.5000001
v 5.399999 -5.316876E-07 0.4999999
v 5.967131 -0.6271707 -0.5000001
v 5.967131 -0.6271707 0.4999999
v 5.370418 -0.5644536 -0.5000001
v 5.370418 -0.5644536 0.4999999
v 5.868884 -1.247471 -0.5000001
v 5.868884 -1.247471 0.4999999
v 5.281996 -1.122724 -0.5000001
v 5.281996 -1.122724 0.4999999
v 5.706338 -1.854102 -0.5000001
v 5.706338 -1.854102 0.4999999
v 5.135705 -1.668692 -0.5000001
v 5.135705 -1.668692 0.4999999
v 5.481272 -2.440419 -0.5000001
v 5.481272 -2.440419 0.4999999
v 4.933145 -2.196377 -0.5000001
v 4.933145 -2.196377 0.4999999
v 3.526711 -4.854101 -0.5000001
v 2.999999 -5.196153 -0.5000001
v 3.526711 -4.854101 0.4999999
v 2.999999 -5.196153 0.4999999
v 2.699999 -4.676538 -0.5000001
v 3.174041 -4.368691 -0.5000001
v 2.699999 -4.676538 0.4999999
v 3.174041 -4.368691 0.4999999
v 2.440419 -5.481273 -0.5000001
v 2.440419 -5.481273 0.4999999
v 2.196377 -4.933146 -0.5000001
v 2.196377 -4.933146 0.4999999
v 1.854102 -5.706339 -0.5000001
v 1.854102 -5.706339 0.4999999
v 1.668692 -5.135705 -0.5000001
v 1.668692 -5.135705 0.4999999
v 1.247471 -5.868886 -0.5000001
v 1.247471 -5.868886 0.4999999
v 1.122724 -5.281997 -0.5000001
v 1.122724 -5.281997 0.4999999
v 0.6271691 -5.967132 -0.5000001
v 0.6271691 -5.967132 0.4999999
v 0.5644522 -5.370419 -0.5000001
v 0.5644522 -5.370419 0.4999999
v -9.536743E-07 -6 -0.5000001
v -9.536743E-07 -6 0.4999999
v -9.536743E-07 -5.4 -0.5000001
v -9.536743E-07 -5.4 0.4999999
v -0.627171 -5.967132 -0.5000001
v -0.627171 -5.967132 0.4999999
v -0.5644541 -5.370419 -0.5000001
v -0.5644541 -5.370419 0.4999999
v -1.24747 -5.868886 -0.5000001
v -1.24747 -5.868886 0.4999999
v -1.122723 -5.281997 -0.5000001
v -1.122723 -5.281997 0.4999999
v -1.854104 -5.706339 -0.5000001
v -1.854104 -5.706339 0.4999999
v -1.668694 -5.135705 -0.5000001
v -1.668694 -5.135705 0.4999999
v -2.440421 -5.481273 -0.5000001
v -2.440421 -5.481273 0.4999999
v -2.196379 -4.933146 -0.5000001
v -2.196379 -4.933146 0.4999999
v -3 -5.196153 -0.5000001
v -3 -5.196153 0.4999999
v -2.700001 -4.676538 -0.5000001
v -2.700001 -4.676538 0.4999999
v -5.481274 -2.440419 -0.5000001
v -5.70634 -1.854102 -0.5000001
v -5.481274 -2.440419 0.4999999
v -5.70634 -1.854102 0.4999999
v -5.135706 -1.668692 -0.5000001
v -4.933147 -2.196377 -0.5000001
v -5.135706 -1.668692 0.4999999
v -4.933147 -2.196377 0.4999999
v -5.868886 -1.247471 -0.5000001
v -5.868886 -1.247471 0.4999999
v -5.281998 -1.122724 -0.5000001
v -5.281998 -1.122724 0.4999999
v -5.967132 -0.6271719 -0.5000001
v -5.967132 -0.6271719 0.4999999
v -5.370419 -0.5644548 -0.5000001
v -5.370419 -0.5644548 0.4999999

vt -0.5000001 -0.3140135
vt -0.5000001 0.314018
vt 0.4999999 -0.3140135
vt 0.4999999 0.314018
vt 0.5000001 0.2826161
vt 0.5000001 -0.2826122
vt -0.4999999 0.2826161
vt -0.4999999 -0.2826122
vt 0.3140177 -0.5000001
vt -0.3140137 -0.5000001
vt 0.3140177 0.4999999
vt -0.3140137 0.4999999
vt 0.2826147 -0.5000001
vt -0.2826137 -0.5000001
vt 0.2826147 0.4999999
vt -0.2826137 0.4999999
vt 0.5000001 0.3140202
vt 0.5000001 -0.314012
vt -0.4999999 0.3140202
vt -0.4999999 -0.314012
vt -0.5000001 -0.2826216
vt -0.5000001 0.2826078
vt 0.4999999 -0.2826216
vt 0.4999999 0.2826078
vt -6.000001 -5.960466E-08
vt -5.967133 0.6271707
vt -5.400001 -5.960466E-08
vt -5.37042 0.5644537
vt 5.967133 0.6271707
vt 6.000001 -5.960466E-08
vt 5.37042 0.5644537
vt 5.400001 -5.960466E-08
vt -5.868887 1.24747
vt -5.281998 1.122723
vt 5.868887 1.24747
vt 5.281998 1.122723
vt -5.70634 1.854102
vt -5.135706 1.668692
vt 5.70634 1.854102
vt 5.135706 1.668692
vt -5.481274 2.44042
vt -4.933146 2.196378
vt 5.481274 2.44042
vt 4.933146 2.196378
vt -5.196153 3
vt -4.676538 2.7
vt 5.196153 3
vt 4.676538 2.7
vt -1.247471 5.868886
vt -0.6271715 5.967132
vt -1.122724 5.281997
vt -0.5644546 5.370419
vt 0.6271715 5.967132
vt 1.247471 5.868886
vt 0.5644546 5.370419
vt 1.122724 5.281997
vt -4.768372E-07 6
vt -9.536743E-07 5.4
vt 1.854101 5.706339
vt 1.668691 5.135705
vt -1.854101 5.706339
vt -1.668691 5.135705
vt 2.440418 5.481273
vt 2.196377 4.933146
vt -2.440418 5.481273
vt -2.196377 4.933146
vt 2.999999 5.196152
vt 2.7 4.676537
vt -2.999999 5.196152
vt -2.7 4.676537
vt 3.52671 4.854102
vt 3.174039 4.368692
vt -3.52671 4.854102
vt -3.174039 4.368692
vt 4.014783 4.458869
vt 3.613305 4.012982
vt -4.014783 4.458869
vt -3.613305 4.012982
vt 4.458868 4.014784
vt 4.01298 3.613305
vt -4.458868 4.014784
vt -4.01298 3.613305
vt 4.854101 3.526711
vt 4.368691 3.17404
vt -4.854101 3.526711
vt -4.368691 3.17404
vt 5.999999 -5.841413E-07
vt 5.399999 -5.316876E-07
vt -5.999999 -5.841413E-07
vt -5.399999 -5.316876E-07
vt 5.967131 -0.6271707
vt 5.370418 -0.5644536
vt -5.967131 -0.6271707
vt -5.370418 -0.5644536
vt 5.868884 -1.247471
vt 5.281996 -1.122724
vt -5.868884 -1.247471
vt -5.281996 -1.122724
vt 5.706338 -1.854102
vt 5.135705 -1.668692
vt -5.706338 -1.854102
vt -5.135705 -1.668692
vt 5.481272 -2.440419
vt 4.933145 -2.196377
vt -5.481272 -2.440419
vt -4.933145 -2.196377
vt 3.526711 -4.854101
vt 2.999999 -5.196153
vt 3.174041 -4.368691
vt 2.699999 -4.676538
vt -2.999999 -5.196153
vt -3.526711 -4.854101
vt -2.699999 -4.676538
vt -3.174041 -4.368691
vt 2.440419 -5.481273
vt 2.196377 -4.933146
vt -2.440419 -5.481273
vt -2.196377 -4.933146
vt 1.854102 -5.706339
vt 1.668692 -5.135705
vt -1.854102 -5.706339
vt -1.668692 -5.135705
vt 1.247471 -5.868886
vt 1.122724 -5.281997
vt -1.247471 -5.868886
vt -1.122724 -5.281997
vt 0.6271691 -5.967132
vt 0.5644522 -5.370419
vt -0.6271691 -5.967132
vt -0.5644522 -5.370419
vt -9.536743E-07 -6
vt -9.536743E-07 -5.4
vt -3 -5.196153
vt -2.700001 -4.676538
vt 3 -5.196153
vt 2.700001 -4.676538

vn -0.9986296 0.05233557 0
vn 0.9986296 -0.05233557 0
vn -0.9876884 0.1564343 0
vn 0.9876882 -0.1564347 0
vn -0.9659258 0.2588192 0
vn 0.9659259 -0.2588188 0
vn -0.9335803 0.3583683 0
vn 0.9335803 -0.3583682 0
vn -0.8910064 0.4539908 0
vn 0.8910064 -0.4539908 0
vn -0.1564342 0.9876884 0
vn 0.1564347 -0.9876882 0
vn -0.05233555 0.9986296 0
vn 0.05233558 -0.9986296 0
vn 0.05233559 0.9986296 0
vn -0.05233553 -0.9986296 0
vn 0.1564344 0.9876884 0
vn -0.156435 -0.9876882 0
vn 0.2588193 0.9659258 0
vn -0.2588187 -0.9659259 0
vn 0.3583686 0.9335802 0
vn -0.3583683 -0.9335803 0
vn 0.4539903 0.8910066 0
vn -0.4539901 -0.8910066 0
vn 0.5446393 0.8386704 0
vn -0.5446397 -0.8386701 0
vn 0.6293196 0.7771466 0
vn -0.6293196 -0.7771466 0
vn 0.7071068 0.7071068 0
vn -0.7071078 -0.7071058 0
vn 0.7771463 0.62932 0
vn -0.7771451 -0.6293215 0
vn 0.8386707 0.5446389 0
vn -0.8386712 -0.5446379 0
vn 0.8910064 0.4539907 0
vn -0.8910062 -0.4539909 0
vn 0.9335805 0.358368 0
vn -0.9335805 -0.3583678 0
vn 0.9659256 0.2588197 0
vn -0.9659256 -0.2588201 0
vn 0.9876884 0.1564344 0
vn -0.9876884 -0.1564341 0
vn 0.9986296 0.05233551 0
vn -0.9986296 -0.05233467 0
vn 0.5446395 -0.8386703 0
vn -0.5446392 0.8386705 0
vn 0.4539903 -0.8910066 0
vn -0.4539902 0.8910067 0
vn 0.3583679 -0.9335805 0
vn -0.3583681 0.9335803 0
vn 0.2588197 -0.9659257 0
vn -0.2588191 0.9659258 0
vn 0 0 1
vn 0 0 -1

usemtl ProBuilderDefault
f 3/3/1 4/4/1 2/2/1 1/1/1
f 7/7/2 8/8/2 6/6/2 5/5/2
f 4/3/3 10/4/3 9/2/3 2/1/3
f 12/7/4 7/8/4 5/6/4 11/5/4
f 10/3/5 14/4/5 13/2/5 9/1/5
f 16/7/6 12/8/6 11/6/6 15/5/6
f 14/3/7 18/4/7 17/2/7 13/1/7
f 20/7/8 16/8/8 15/6/8 19/5/8
f 18/3/9 22/4/9 21/2/9 17/1/9
f 24/7/10 20/8/10 19/6/10 23/5/10
f 27/11/11 28/12/11 26/10/11 25/9/11
f 31/15/12 32/16/12 30/14/12 29/13/12
f 28/11/13 34/12/13 33/10/13 26/9/13
f 36/15/14 31/16/14 29/14/14 35/13/14
f 34/11/15 38/12/15 37/10/15 33/9/15
f 40/15/16 36/16/16 35/14/16 39/13/16
f 38/11/17 42/12/17 41/10/17 37/9/17
f 44/15/18 40/16/18 39/14/18 43/13/18
f 42/11/19 46/12/19 45/10/19 41/9/19
f 48/15/20 44/16/20 43/14/20 47/13/20
f 46/11/21 50/12/21 49/10/21 45/9/21
f 52/15/22 48/16/22 47/14/22 51/13/22
f 50/11/23 54/12/23 53/10/23 49/9/23
f 56/15/24 52/16/24 51/14/24 55/13/24
f 54/11/25 58/12/25 57/10/25 53/9/25
f 60/15/26 56/16/26 55/14/26 59/13/26
f 58/11/27 62/12/27 61/10/27 57/9/27
f 64/15/28 60/16/28 59/14/28 63/13/28
f 62/11/29 66/12/29 65/10/29 61/9/29
f 68/15/30 64/16/30 63/14/30 67/13/30
f 66/19/31 70/20/31 69/18/31 65/17/31
f 72/23/32 68/24/32 67/22/32 71/21/32
f 70/19/33 74/20/33 73/18/33 69/17/33
f 76/23/34 72/24/34 71/22/34 75/21/34
f 74/19/35 78/20/35 77/18/35 73/17/35
f 80/23/36 76/24/36 75/22/36 79/21/36
f 78/19/37 82/20/37 81/18/37 77/17/37
f 84/23/38 80/24/38 79/22/38 83/21/38
f 82/19/39 86/20/39 85/18/39 81/17/39
f 88/23/40 84/24/40 83/22/40 87/21/40
f 86/19/41 90/20/41 89/18/41 85/17/41
f 92/23/42 88/24/42 87/22/42 91/21/42
f 90/19/43 94/20/43 93/18/43 89/17/43
f 96/23/44 92/24/44 91/22/44 95/21/44
f 94/19/2 98/20/2 97/18/2 93/17/2
f 100/23/1 96/24/1 95/22/1 99/21/1
f 98/19/4 102/20/4 101/18/4 97/17/4
f 104/23/3 100/24/3 99/22/3 103/21/3
f 102/19/6 106/20/6 105/18/6 101/17/6
f 108/23/5 104/24/5 103/22/5 107/21/5
f 106/19/8 110/20/8 109/18/8 105/17/8
f 112/23/7 108/24/7 107/22/7 111/21/7
f 115/11/45 116/12/45 114/10/45 113/9/45
f 119/15/46 120/16/46 118/14/46 117/13/46
f 116/11/47 122/12/47 121/10/47 114/9/47
f 124/15/48 119/16/48 117/14/48 123/13/48
f 122/11/49 126/12/49 125/10/49 121/9/49
f 128/15/50 124/16/50 123/14/50 127/13/50
f 126/11/51 130/12/51 129/10/51 125/9/51
f 132/15/52 128/16/52 127/14/52 131/13/52
f 130/11/12 134/12/12 133/10/12 129/9/12
f 136/15/11 132/16/11 131/14/11 135/13/11
f 134/11/14 138/12/14 137/10/14 133/9/14
f 140/15/13 136/16/13 135/14/13 139/13/13
f 138/11/16 142/12/16 141/10/16 137/9/16
f 144/15/15 140/16/15 139/14/15 143/13/15
f 142/11/18 146/12/18 145/10/18 141/9/18
f 148/15/17 144/16/17 143/14/17 147/13/17
f 146/11/20 150/12/20 149/10/20 145/9/20
f 152/15/19 148/16/19 147/14/19 151/13/19
f 150/11/22 154/12/22 153/10/22 149/9/22
f 156/15/21 152/16/21 151/14/21 155/13/21
f 154/11/24 158/12/24 157/10/24 153/9/24
f 160/15/23 156/16/23 155/14/23 159/13/23
f 163/3/38 164/4/38 162/2/38 161/1/38
f 167/7/37 168/8/37 166/6/37 165/5/37
f 164/3/40 170/4/40 169/2/40 162/1/40
f 172/7/39 167/8/39 165/6/39 171/5/39
f 170/3/42 174/4/42 173/2/42 169/1/42
f 176/7/41 172/8/41 171/6/41 175/5/41
f 174/3/44 3/4/44 1/2/44 173/1/44
f 8/7/43 176/8/43 175/6/43 6/5/43
f 8/27/53 7/28/53 4/26/53 3/25/53
f 5/31/54 6/32/54 1/30/54 2/29/54
f 7/28/53 12/34/53 10/33/53 4/26/53
f 11/36/54 5/31/54 2/29/54 9/35/54
f 12/34/53 16/38/53 14/37/53 10/33/53
f 15/40/54 11/36/54 9/35/54 13/39/54
f 16/38/53 20/42/53 18/41/53 14/37/53
f 19/44/54 15/40/54 13/39/54 17/43/54
f 20/42/53 24/46/53 22/45/53 18/41/53
f 23/48/54 19/44/54 17/43/54 21/47/54
f 32/51/53 31/52/53 28/50/53 27/49/53
f 29/55/54 30/56/54 25/54/54 26/53/54
f 31/52/53 36/58/53 34/57/53 28/50/53
f 35/58/54 29/55/54 26/53/54 33/57/54
f 36/58/53 40/55/53 38/53/53 34/57/53
f 39/52/54 35/58/54 33/57/54 37/50/54
f 40/55/53 44/56/53 42/54/53 38/53/53
f 43/51/54 39/52/54 37/50/54 41/49/54
f 44/56/53 48/60/53 46/59/53 42/54/53
f 47/62/54 43/51/54 41/49/54 45/61/54
f 48/60/53 52/64/53 50/63/53 46/59/53
f 51/66/54 47/62/54 45/61/54 49/65/54
f 52/64/53 56/68/53 54/67/53 50/63/53
f 55/70/54 51/66/54 49/65/54 53/69/54
f 56/68/53 60/72/53 58/71/53 54/67/53
f 59/74/54 55/70/54 53/69/54 57/73/54
f 60/72/53 64/76/53 62/75/53 58/71/53
f 63/78/54 59/74/54 57/73/54 61/77/54
f 64/76/53 68/80/53 66/79/53 62/75/53
f 67/82/54 63/78/54 61/77/54 65/81/54
f 68/80/53 72/84/53 70/83/53 66/79/53
f 71/86/54 67/82/54 65/81/54 69/85/54
f 72/84/53 76/48/53 74/47/53 70/83/53
f 75/46/54 71/86/54 69/85/54 73/45/54
f 76/48/53 80/44/53 78/43/53 74/47/53
f 79/42/54 75/46/54 73/45/54 77/41/54
f 80/44/53 84/40/53 82/39/53 78/43/53
f 83/38/54 79/42/54 77/41/54 81/37/54
f 84/40/53 88/36/53 86/35/53 82/39/53
f 87/34/54 83/38/54 81/37/54 85/33/54
f 88/36/53 92/31/53 90/29/53 86/35/53
f 91/28/54 87/34/54 85/33/54 89/26/54
f 92/31/53 96/88/53 94/87/53 90/29/53
f 95/90/54 91/28/54 89/26/54 93/89/54
f 96/88/53 100/92/53 98/91/53 94/87/53
f 99/94/54 95/90/54 93/89/54 97/93/54
f 100/92/53 104/96/53 102/95/53 98/91/53
f 103/98/54 99/94/54 97/93/54 101/97/54
f 104/96/53 108/100/53 106/99/53 102/95/53
f 107/102/54 103/98/54 101/97/54 105/101/54
f 108/100/53 112/104/53 110/103/53 106/99/53
f 111/106/54 107/102/54 105/101/54 109/105/54
f 120/109/53 119/110/53 116/108/53 115/107/53
f 117/113/54 118/114/54 113/112/54 114/111/54
f 119/110/53 124/116/53 122/115/53 116/108/53
f 123/118/54 117/113/54 114/111/54 121/117/54
f 124/116/53 128/120/53 126/119/53 122/115/53
f 127/122/54 123/118/54 121/117/54 125/121/54
f 128/120/53 132/124/53 130/123/53 126/119/53
f 131/126/54 127/122/54 125/121/54 129/125/54
f 132/124/53 136/128/53 134/127/53 130/123/53
f 135/130/54 131/126/54 129/125/54 133/129/54
f 136/128/53 140/132/53 138/131/53 134/127/53
f 139/132/54 135/130/54 133/129/54 137/131/54
f 140/132/53 144/130/53 142/129/53 138/131/53
f 143/128/54 139/132/54 137/131/54 141/127/54
f 144/130/53 148/126/53 146/125/53 142/129/53
f 147/124/54 143/128/54 141/127/54 145/123/54
f 148/126/53 152/122/53 150/121/53 146/125/53
f 151/120/54 147/124/54 145/123/54 149/119/54
f 152/122/53 156/118/53 154/117/53 150/121/53
f 155/116/54 151/120/54 149/119/54 153/115/54
f 156/118/53 160/134/53 158/133/53 154/117/53
f 159/136/54 155/116/54 153/115/54 157/135/54
f 168/106/53 167/102/53 164/101/53 163/105/53
f 165/100/54 166/104/54 161/103/54 162/99/54
f 167/102/53 172/98/53 170/97/53 164/101/53
f 171/96/54 165/100/54 162/99/54 169/95/54
f 172/98/53 176/94/53 174/93/53 170/97/53
f 175/92/54 171/96/54 169/95/54 173/91/54
f 176/94/53 8/27/53 3/25/53 174/93/53
f 6/32/54 175/92/54 173/91/54 1/30/54

